<svg width="304" height="61" viewBox="0 0 304 61" fill="none" xmlns="http://www.w3.org/2000/svg">
<g clip-path="url(#clip0_1_2)">
<path d="M18.305 60.215L24.065 44.925L100.645 44.925L94.875 60.215L18.305 60.215Z" fill="#00AEEF"/>
<path d="M49.385 35.965L37.005 1.495L43.485 1.495C46.225 9.945 49.485 19.415 51.415 24.305C51.675 25.075 51.975 25.985 52.335 25.985C52.695 25.985 52.895 24.985 53.255 24.195L61.605 1.495L67.765 1.495C63.385 11.875 56.865 29.345 54.765 35.965H49.385Z" fill="#1E1E1E"/>
<path d="M78.975 35.815V1.495L98.475 1.495V6.685C95.925 6.425 91.645 6.375 85.695 6.375C85.235 6.375 84.935 6.585 84.885 7.375C84.825 9.105 84.775 12.305 84.775 15.255H96.995V20.285H84.775V29.685C84.7639 29.8229 84.7816 29.9616 84.8269 30.0923C84.8721 30.223 84.944 30.3429 85.038 30.4444C85.132 30.5459 85.246 30.6268 85.3729 30.682C85.4997 30.7372 85.6367 30.7654 85.775 30.765C91.885 30.765 95.555 30.715 98.905 30.605V35.855L78.975 35.815Z" fill="#1E1E1E"/>
<path d="M119.705 1.495C119.655 5.575 119.495 9.495 119.495 16.925V29.755C119.472 29.8914 119.483 30.0312 119.525 30.1628C119.567 30.2944 119.64 30.414 119.738 30.5118C119.836 30.6095 119.956 30.6826 120.087 30.7249C120.219 30.7672 120.359 30.7775 120.495 30.755C126.965 30.755 130.495 30.705 132.715 30.545V35.845H113.715V1.495L119.705 1.495Z" fill="#1E1E1E"/>
<path d="M209.395 35.055C207.14 36.0766 204.69 36.5952 202.215 36.575C192.795 36.575 184.695 31.575 184.695 18.805C184.695 6.035 193.095 0.685001 202.525 0.685001C204.846 0.673424 207.157 0.9796 209.395 1.595V7.595C207.198 6.68509 204.843 6.21945 202.465 6.225C195.855 6.225 191.115 9.585 191.115 18.695C191.115 27.965 196.255 31.065 202.525 31.065C204.887 31.1016 207.23 30.631 209.395 29.685V35.055Z" fill="#1E1E1E"/>
<path d="M254.025 18.505C254.025 30.775 246.795 36.575 238.295 36.575C229.795 36.575 222.515 30.985 222.515 18.685C222.515 6.385 229.685 0.684998 238.295 0.684998C246.905 0.684998 254.025 6.225 254.025 18.505ZM247.705 18.505C247.705 9.685 243.895 5.925 238.295 5.925C232.695 5.925 228.825 9.925 228.825 18.755C228.825 27.585 232.645 31.425 238.295 31.425C243.945 31.425 247.705 27.415 247.705 18.505Z" fill="#1E1E1E"/>
<path d="M295.935 12.135C293.235 18.505 288.935 29.855 287.235 34.585H282.595L274.215 12.135C273.865 19.065 273.455 31.995 273.395 35.815H267.395L269.395 1.495L276.085 1.495C278.925 9.795 282.285 19.365 284.425 24.355C284.635 24.815 284.835 25.355 285.095 25.355C285.355 25.355 285.545 24.795 285.755 24.355L294.865 1.495L300.865 1.495L301.935 19.685C302.355 26.545 302.865 33.065 303.215 35.815H297.055L295.935 12.135Z" fill="#1E1E1E"/>
<path d="M18.695 1.345L13.295 1.345C11.205 7.965 4.69498 25.425 0.294983 35.815H11.565L13.415 30.325H8.41501C10.845 23.575 14.785 12.705 15.755 10.255C17.285 13.965 23.755 33.115 24.555 35.815H31.025L18.695 1.345Z" fill="#1E1E1E"/>
<path d="M161.435 1.345L156.035 1.345C153.945 7.965 147.435 25.425 143.035 35.815H154.305L156.155 30.325H151.155C153.595 23.575 157.535 12.705 158.505 10.255C160.025 13.965 166.505 33.115 167.315 35.815H173.775L161.435 1.345Z" fill="#1E1E1E"/>
</g>
<defs>
<clipPath id="clip0_1_2">
<rect width="59.53" height="302.9" fill="white" transform="matrix(0 1 -1 0 303.215 0.684998)"/>
</clipPath>
</defs>
</svg>
